<svg width="835" height="106" viewBox="0 0 835 106" fill="none" xmlns="http://www.w3.org/2000/svg">
<g clip-path="url(#clip0_38:6)">
<path d="M36.9 79.7C30.3 79.7 24.2333 78.1667 18.7 75.1C13.2333 72.0333 8.86667 67.7667 5.6 62.3C2.4 56.7667 0.8 50.5667 0.8 43.7C0.8 36.8333 2.4 30.6667 5.6 25.2C8.86667 19.7333 13.2333 15.4667 18.7 12.4C24.2333 9.33333 30.3 7.8 36.9 7.8C43.5 7.8 49.5333 9.33333 55 12.4C60.5333 15.4667 64.8667 19.7333 68 25.2C71.2 30.6667 72.8 36.8333 72.8 43.7C72.8 50.5667 71.2 56.7667 68 62.3C64.8 67.7667 60.4667 72.0333 55 75.1C49.5333 78.1667 43.5 79.7 36.9 79.7ZM36.9 64.1C42.5 64.1 46.9667 62.2333 50.3 58.5C53.7 54.7667 55.4 49.8333 55.4 43.7C55.4 37.5 53.7 32.5667 50.3 28.9C46.9667 25.1667 42.5 23.3 36.9 23.3C31.2333 23.3 26.7 25.1333 23.3 28.8C19.9667 32.4667 18.3 37.4333 18.3 43.7C18.3 49.9 19.9667 54.8667 23.3 58.6C26.7 62.2667 31.2333 64.1 36.9 64.1ZM78.9133 51.1C78.9133 45.3 80.0799 40.2333 82.4133 35.9C84.8133 31.5667 88.1133 28.2333 92.3133 25.9C96.5799 23.5667 101.447 22.4 106.913 22.4C113.913 22.4 119.747 24.2333 124.413 27.9C129.147 31.5667 132.247 36.7333 133.713 43.4H115.513C113.98 39.1333 111.013 37 106.613 37C103.48 37 100.98 38.2333 99.1133 40.7C97.2466 43.1 96.3133 46.5667 96.3133 51.1C96.3133 55.6333 97.2466 59.1333 99.1133 61.6C100.98 64 103.48 65.2 106.613 65.2C111.013 65.2 113.98 63.0667 115.513 58.8H133.713C132.247 65.3333 129.147 70.4667 124.413 74.2C119.68 77.9333 113.847 79.8 106.913 79.8C101.447 79.8 96.5799 78.6333 92.3133 76.3C88.1133 73.9667 84.8133 70.6333 82.4133 66.3C80.0799 61.9667 78.9133 56.9 78.9133 51.1ZM177.16 22.6C183.56 22.6 188.693 24.7333 192.56 29C196.427 33.2 198.36 39 198.36 46.4V79H181.36V48.7C181.36 44.9667 180.393 42.0667 178.46 40C176.527 37.9333 173.927 36.9 170.66 36.9C167.393 36.9 164.793 37.9333 162.86 40C160.927 42.0667 159.96 44.9667 159.96 48.7V79H142.86V5H159.96V30.7C161.693 28.2333 164.06 26.2667 167.06 24.8C170.06 23.3333 173.427 22.6 177.16 22.6ZM235.643 79.8C230.176 79.8 225.243 78.6333 220.843 76.3C216.51 73.9667 213.076 70.6333 210.543 66.3C208.076 61.9667 206.843 56.9 206.843 51.1C206.843 45.3667 208.11 40.3333 210.643 36C213.176 31.6 216.643 28.2333 221.043 25.9C225.443 23.5667 230.376 22.4 235.843 22.4C241.31 22.4 246.243 23.5667 250.643 25.9C255.043 28.2333 258.51 31.6 261.043 36C263.576 40.3333 264.843 45.3667 264.843 51.1C264.843 56.8333 263.543 61.9 260.943 66.3C258.41 70.6333 254.91 73.9667 250.443 76.3C246.043 78.6333 241.11 79.8 235.643 79.8ZM235.643 65C238.91 65 241.676 63.8 243.943 61.4C246.276 59 247.443 55.5667 247.443 51.1C247.443 46.6333 246.31 43.2 244.043 40.8C241.843 38.4 239.11 37.2 235.843 37.2C232.51 37.2 229.743 38.4 227.543 40.8C225.343 43.1333 224.243 46.5667 224.243 51.1C224.243 55.5667 225.31 59 227.443 61.4C229.643 63.8 232.376 65 235.643 65ZM270.515 51C270.515 45.2667 271.582 40.2333 273.715 35.9C275.915 31.5667 278.882 28.2333 282.615 25.9C286.348 23.5667 290.515 22.4 295.115 22.4C299.048 22.4 302.482 23.2 305.415 24.8C308.415 26.4 310.715 28.5 312.315 31.1V23.2H329.415V79H312.315V71.1C310.648 73.7 308.315 75.8 305.315 77.4C302.382 79 298.948 79.8 295.015 79.8C290.482 79.8 286.348 78.6333 282.615 76.3C278.882 73.9 275.915 70.5333 273.715 66.2C271.582 61.8 270.515 56.7333 270.515 51ZM312.315 51.1C312.315 46.8333 311.115 43.4667 308.715 41C306.382 38.5333 303.515 37.3 300.115 37.3C296.715 37.3 293.815 38.5333 291.415 41C289.082 43.4 287.915 46.7333 287.915 51C287.915 55.2667 289.082 58.6667 291.415 61.2C293.815 63.6667 296.715 64.9 300.115 64.9C303.515 64.9 306.382 63.6667 308.715 61.2C311.115 58.7333 312.315 55.3667 312.315 51.1Z" fill="#C3AEFF"/>
<path d="M398.1 79.7C392.967 79.7 388.367 78.8667 384.3 77.2C380.233 75.5333 376.967 73.0667 374.5 69.8C372.1 66.5333 370.833 62.6 370.7 58H388.9C389.167 60.6 390.067 62.6 391.6 64C393.133 65.3333 395.133 66 397.6 66C400.133 66 402.133 65.4333 403.6 64.3C405.067 63.1 405.8 61.4667 405.8 59.4C405.8 57.6667 405.2 56.2333 404 55.1C402.867 53.9667 401.433 53.0333 399.7 52.3C398.033 51.5667 395.633 50.7333 392.5 49.8C387.967 48.4 384.267 47 381.4 45.6C378.533 44.2 376.067 42.1333 374 39.4C371.933 36.6667 370.9 33.1 370.9 28.7C370.9 22.1667 373.267 17.0667 378 13.4C382.733 9.66667 388.9 7.8 396.5 7.8C404.233 7.8 410.467 9.66667 415.2 13.4C419.933 17.0667 422.467 22.2 422.8 28.8H404.3C404.167 26.5333 403.333 24.7667 401.8 23.5C400.267 22.1667 398.3 21.5 395.9 21.5C393.833 21.5 392.167 22.0667 390.9 23.2C389.633 24.2667 389 25.8333 389 27.9C389 30.1667 390.067 31.9333 392.2 33.2C394.333 34.4667 397.667 35.8333 402.2 37.3C406.733 38.8333 410.4 40.3 413.2 41.7C416.067 43.1 418.533 45.1333 420.6 47.8C422.667 50.4667 423.7 53.9 423.7 58.1C423.7 62.1 422.667 65.7333 420.6 69C418.6 72.2667 415.667 74.8667 411.8 76.8C407.933 78.7333 403.367 79.7 398.1 79.7ZM459.623 79.8C454.157 79.8 449.223 78.6333 444.823 76.3C440.49 73.9667 437.057 70.6333 434.523 66.3C432.057 61.9667 430.823 56.9 430.823 51.1C430.823 45.3667 432.09 40.3333 434.623 36C437.157 31.6 440.623 28.2333 445.023 25.9C449.423 23.5667 454.357 22.4 459.823 22.4C465.29 22.4 470.223 23.5667 474.623 25.9C479.023 28.2333 482.49 31.6 485.023 36C487.557 40.3333 488.823 45.3667 488.823 51.1C488.823 56.8333 487.523 61.9 484.923 66.3C482.39 70.6333 478.89 73.9667 474.423 76.3C470.023 78.6333 465.09 79.8 459.623 79.8ZM459.623 65C462.89 65 465.657 63.8 467.923 61.4C470.257 59 471.423 55.5667 471.423 51.1C471.423 46.6333 470.29 43.2 468.023 40.8C465.823 38.4 463.09 37.2 459.823 37.2C456.49 37.2 453.723 38.4 451.523 40.8C449.323 43.1333 448.223 46.5667 448.223 51.1C448.223 55.5667 449.29 59 451.423 61.4C453.623 63.8 456.357 65 459.623 65ZM525.895 37.4H516.695V79H499.595V37.4H493.395V23.2H499.595V21.6C499.595 14.7333 501.562 9.53333 505.495 6C509.429 2.4 515.195 0.599996 522.795 0.599996C524.062 0.599996 524.995 0.633329 525.595 0.699995V15.2C522.329 15 520.029 15.4667 518.695 16.6C517.362 17.7333 516.695 19.7667 516.695 22.7V23.2H525.895V37.4ZM565.03 64.5V79H556.33C550.13 79 545.297 77.5 541.83 74.5C538.364 71.4333 536.63 66.4667 536.63 59.6V37.4H529.83V23.2H536.63V9.6H553.73V23.2H564.93V37.4H553.73V59.8C553.73 61.4667 554.13 62.6667 554.93 63.4C555.73 64.1333 557.064 64.5 558.93 64.5H565.03ZM654.655 23.2L639.555 79H620.655L611.855 42.8L602.755 79H583.955L568.755 23.2H585.855L593.755 63.1L603.155 23.2H621.255L630.755 62.9L638.555 23.2H654.655ZM657.777 51C657.777 45.2667 658.843 40.2333 660.977 35.9C663.177 31.5667 666.143 28.2333 669.877 25.9C673.61 23.5667 677.777 22.4 682.377 22.4C686.31 22.4 689.743 23.2 692.677 24.8C695.677 26.4 697.977 28.5 699.577 31.1V23.2H716.677V79H699.577V71.1C697.91 73.7 695.577 75.8 692.577 77.4C689.643 79 686.21 79.8 682.277 79.8C677.743 79.8 673.61 78.6333 669.877 76.3C666.143 73.9 663.177 70.5333 660.977 66.2C658.843 61.8 657.777 56.7333 657.777 51ZM699.577 51.1C699.577 46.8333 698.377 43.4667 695.977 41C693.643 38.5333 690.777 37.3 687.377 37.3C683.977 37.3 681.077 38.5333 678.677 41C676.343 43.4 675.177 46.7333 675.177 51C675.177 55.2667 676.343 58.6667 678.677 61.2C681.077 63.6667 683.977 64.9 687.377 64.9C690.777 64.9 693.643 63.6667 695.977 61.2C698.377 58.7333 699.577 55.3667 699.577 51.1ZM746.148 32.5C748.148 29.4333 750.648 27.0333 753.648 25.3C756.648 23.5 759.981 22.6 763.648 22.6V40.7H758.948C754.681 40.7 751.481 41.6333 749.348 43.5C747.214 45.3 746.148 48.5 746.148 53.1V79H729.048V23.2H746.148V32.5ZM824.421 50.2C824.421 51.8 824.321 53.4667 824.121 55.2H785.421C785.688 58.6667 786.788 61.3333 788.721 63.2C790.721 65 793.154 65.9 796.021 65.9C800.288 65.9 803.254 64.1 804.921 60.5H823.121C822.188 64.1667 820.488 67.4667 818.021 70.4C815.621 73.3333 812.588 75.6333 808.921 77.3C805.254 78.9667 801.154 79.8 796.621 79.8C791.154 79.8 786.288 78.6333 782.021 76.3C777.754 73.9667 774.421 70.6333 772.021 66.3C769.621 61.9667 768.421 56.9 768.421 51.1C768.421 45.3 769.588 40.2333 771.921 35.9C774.321 31.5667 777.654 28.2333 781.921 25.9C786.188 23.5667 791.088 22.4 796.621 22.4C802.021 22.4 806.821 23.5333 811.021 25.8C815.221 28.0667 818.488 31.3 820.821 35.5C823.221 39.7 824.421 44.6 824.421 50.2ZM806.921 45.7C806.921 42.7667 805.921 40.4333 803.921 38.7C801.921 36.9667 799.421 36.1 796.421 36.1C793.554 36.1 791.121 36.9333 789.121 38.6C787.188 40.2667 785.988 42.6333 785.521 45.7H806.921Z" fill="white"/>
</g>
<defs>
<clipPath id="clip0_38:6">
<rect width="835" height="106" fill="white"/>
</clipPath>
</defs>
</svg>
